<mxfile host="app.diagrams.net" agent="Mozilla/5.0 (Windows NT 10.0; Win64; x64) AppleWebKit/537.36 (KHTML, like Gecko) Chrome/126.0.0.0 YaBrowser/24.7.0.0 Safari/537.36" version="24.7.7">
  <diagram name="Страница — 1" id="FGL5juCpxuHzhaVS4dyM">
    <mxGraphModel dx="1561" dy="787" grid="1" gridSize="10" guides="1" tooltips="1" connect="1" arrows="1" fold="1" page="1" pageScale="1" pageWidth="827" pageHeight="1169" math="0" shadow="0">
      <root>
        <mxCell id="0" />
        <mxCell id="1" parent="0" />
        <mxCell id="ZMmlAPcgC032XeqDMMNX-27" value="" style="edgeStyle=orthogonalEdgeStyle;rounded=0;orthogonalLoop=1;jettySize=auto;html=1;endArrow=none;endFill=0;strokeWidth=3;" edge="1" parent="1" source="ZMmlAPcgC032XeqDMMNX-1" target="ZMmlAPcgC032XeqDMMNX-14">
          <mxGeometry relative="1" as="geometry" />
        </mxCell>
        <mxCell id="ZMmlAPcgC032XeqDMMNX-1" value="Root" style="text;html=1;align=center;verticalAlign=middle;whiteSpace=wrap;rounded=0;" vertex="1" parent="1">
          <mxGeometry x="10" y="150" width="60" height="30" as="geometry" />
        </mxCell>
        <mxCell id="ZMmlAPcgC032XeqDMMNX-2" value="Mission" style="text;html=1;align=center;verticalAlign=middle;resizable=0;points=[];autosize=1;strokeColor=none;fillColor=none;" vertex="1" parent="1">
          <mxGeometry x="240" y="800" width="60" height="30" as="geometry" />
        </mxCell>
        <mxCell id="ZMmlAPcgC032XeqDMMNX-3" value="Map" style="text;html=1;align=center;verticalAlign=middle;resizable=0;points=[];autosize=1;strokeColor=none;fillColor=none;" vertex="1" parent="1">
          <mxGeometry x="330" y="980.24" width="50" height="30" as="geometry" />
        </mxCell>
        <mxCell id="ZMmlAPcgC032XeqDMMNX-4" value="GameSession" style="text;html=1;align=center;verticalAlign=middle;resizable=0;points=[];autosize=1;strokeColor=none;fillColor=none;" vertex="1" parent="1">
          <mxGeometry x="160" y="218" width="100" height="30" as="geometry" />
        </mxCell>
        <mxCell id="ZMmlAPcgC032XeqDMMNX-13" value="GameEventService" style="text;html=1;align=center;verticalAlign=middle;resizable=0;points=[];autosize=1;strokeColor=#d79b00;fillColor=#ffe6cc;" vertex="1" parent="1">
          <mxGeometry x="550" y="840" width="130" height="30" as="geometry" />
        </mxCell>
        <mxCell id="ZMmlAPcgC032XeqDMMNX-16" value="" style="edgeStyle=orthogonalEdgeStyle;rounded=0;orthogonalLoop=1;jettySize=auto;html=1;entryX=-0.012;entryY=0.48;entryDx=0;entryDy=0;entryPerimeter=0;endArrow=none;endFill=0;strokeWidth=3;" edge="1" parent="1" source="ZMmlAPcgC032XeqDMMNX-14" target="ZMmlAPcgC032XeqDMMNX-4">
          <mxGeometry relative="1" as="geometry">
            <Array as="points">
              <mxPoint x="140" y="232" />
            </Array>
          </mxGeometry>
        </mxCell>
        <mxCell id="ZMmlAPcgC032XeqDMMNX-14" value="Router" style="text;html=1;align=center;verticalAlign=middle;resizable=0;points=[];autosize=1;strokeColor=none;fillColor=none;" vertex="1" parent="1">
          <mxGeometry x="110" y="150" width="60" height="30" as="geometry" />
        </mxCell>
        <mxCell id="ZMmlAPcgC032XeqDMMNX-19" value="Cursor3D" style="text;html=1;align=center;verticalAlign=middle;resizable=0;points=[];autosize=1;strokeColor=none;fillColor=none;" vertex="1" parent="1">
          <mxGeometry x="240" y="260" width="70" height="30" as="geometry" />
        </mxCell>
        <mxCell id="ZMmlAPcgC032XeqDMMNX-58" style="edgeStyle=orthogonalEdgeStyle;rounded=0;orthogonalLoop=1;jettySize=auto;html=1;endArrow=none;endFill=0;strokeWidth=3;" edge="1" parent="1" source="ZMmlAPcgC032XeqDMMNX-20" target="ZMmlAPcgC032XeqDMMNX-41">
          <mxGeometry relative="1" as="geometry" />
        </mxCell>
        <mxCell id="ZMmlAPcgC032XeqDMMNX-20" value="EscapeMenu" style="text;html=1;align=center;verticalAlign=middle;resizable=0;points=[];autosize=1;strokeColor=none;fillColor=none;" vertex="1" parent="1">
          <mxGeometry x="350" y="365" width="90" height="30" as="geometry" />
        </mxCell>
        <mxCell id="ZMmlAPcgC032XeqDMMNX-21" value="QuestManager" style="text;html=1;align=center;verticalAlign=middle;resizable=0;points=[];autosize=1;strokeColor=none;fillColor=none;" vertex="1" parent="1">
          <mxGeometry x="305" y="840" width="100" height="30" as="geometry" />
        </mxCell>
        <mxCell id="ZMmlAPcgC032XeqDMMNX-22" value="MainCamera" style="text;html=1;align=center;verticalAlign=middle;resizable=0;points=[];autosize=1;strokeColor=none;fillColor=none;" vertex="1" parent="1">
          <mxGeometry x="310" y="882" width="90" height="30" as="geometry" />
        </mxCell>
        <mxCell id="ZMmlAPcgC032XeqDMMNX-23" value="MissionfinishManager" style="text;html=1;align=center;verticalAlign=middle;resizable=0;points=[];autosize=1;strokeColor=none;fillColor=none;" vertex="1" parent="1">
          <mxGeometry x="310" y="927" width="140" height="30" as="geometry" />
        </mxCell>
        <mxCell id="ZMmlAPcgC032XeqDMMNX-24" value="Characters" style="text;html=1;align=center;verticalAlign=middle;resizable=0;points=[];autosize=1;strokeColor=none;fillColor=none;" vertex="1" parent="1">
          <mxGeometry x="380" y="1013" width="80" height="30" as="geometry" />
        </mxCell>
        <mxCell id="ZMmlAPcgC032XeqDMMNX-25" value="Character" style="text;html=1;align=center;verticalAlign=middle;resizable=0;points=[];autosize=1;strokeColor=none;fillColor=none;" vertex="1" parent="1">
          <mxGeometry x="450" y="1053" width="80" height="30" as="geometry" />
        </mxCell>
        <mxCell id="ZMmlAPcgC032XeqDMMNX-29" value="CharacterController" style="text;html=1;align=center;verticalAlign=middle;resizable=0;points=[];autosize=1;strokeColor=none;fillColor=none;" vertex="1" parent="1">
          <mxGeometry x="230" y="630" width="130" height="30" as="geometry" />
        </mxCell>
        <mxCell id="ZMmlAPcgC032XeqDMMNX-34" style="edgeStyle=entityRelationEdgeStyle;rounded=0;orthogonalLoop=1;jettySize=auto;html=1;entryX=-0.01;entryY=0.588;entryDx=0;entryDy=0;entryPerimeter=0;strokeColor=#B3B3B3;" edge="1" parent="1" source="ZMmlAPcgC032XeqDMMNX-21" target="ZMmlAPcgC032XeqDMMNX-13">
          <mxGeometry relative="1" as="geometry">
            <mxPoint x="460" y="853" as="targetPoint" />
          </mxGeometry>
        </mxCell>
        <mxCell id="ZMmlAPcgC032XeqDMMNX-35" value="GameSessionUI" style="text;html=1;align=center;verticalAlign=middle;resizable=0;points=[];autosize=1;strokeColor=none;fillColor=none;" vertex="1" parent="1">
          <mxGeometry x="240" y="320" width="110" height="30" as="geometry" />
        </mxCell>
        <mxCell id="ZMmlAPcgC032XeqDMMNX-36" value="AbilitiesUI" style="text;html=1;align=center;verticalAlign=middle;resizable=0;points=[];autosize=1;strokeColor=none;fillColor=none;" vertex="1" parent="1">
          <mxGeometry x="470" y="517" width="80" height="30" as="geometry" />
        </mxCell>
        <mxCell id="ZMmlAPcgC032XeqDMMNX-37" value="CharacterUI" style="text;html=1;align=center;verticalAlign=middle;resizable=0;points=[];autosize=1;strokeColor=none;fillColor=none;" vertex="1" parent="1">
          <mxGeometry x="345" y="487" width="90" height="30" as="geometry" />
        </mxCell>
        <mxCell id="ZMmlAPcgC032XeqDMMNX-38" value="AttributesUI" style="text;html=1;align=center;verticalAlign=middle;resizable=0;points=[];autosize=1;strokeColor=none;fillColor=none;" vertex="1" parent="1">
          <mxGeometry x="470" y="535" width="90" height="30" as="geometry" />
        </mxCell>
        <mxCell id="ZMmlAPcgC032XeqDMMNX-40" value="EffectsUI" style="text;html=1;align=center;verticalAlign=middle;resizable=0;points=[];autosize=1;strokeColor=none;fillColor=none;" vertex="1" parent="1">
          <mxGeometry x="475" y="555" width="70" height="30" as="geometry" />
        </mxCell>
        <mxCell id="ZMmlAPcgC032XeqDMMNX-49" style="edgeStyle=entityRelationEdgeStyle;rounded=0;orthogonalLoop=1;jettySize=auto;html=1;strokeColor=#B3B3B3;" edge="1" parent="1" source="ZMmlAPcgC032XeqDMMNX-41" target="ZMmlAPcgC032XeqDMMNX-48">
          <mxGeometry relative="1" as="geometry" />
        </mxCell>
        <mxCell id="ZMmlAPcgC032XeqDMMNX-41" value="InventoryMenu" style="text;html=1;align=center;verticalAlign=middle;resizable=0;points=[];autosize=1;strokeColor=none;fillColor=none;" vertex="1" parent="1">
          <mxGeometry x="345" y="425" width="100" height="30" as="geometry" />
        </mxCell>
        <mxCell id="ZMmlAPcgC032XeqDMMNX-42" value="GameSettingsStore" style="text;html=1;align=center;verticalAlign=middle;resizable=0;points=[];autosize=1;strokeColor=#d79b00;fillColor=#ffe6cc;" vertex="1" parent="1">
          <mxGeometry x="675" y="395" width="130" height="30" as="geometry" />
        </mxCell>
        <mxCell id="ZMmlAPcgC032XeqDMMNX-43" value="SettingsMenu" style="text;html=1;align=center;verticalAlign=middle;resizable=0;points=[];autosize=1;strokeColor=none;fillColor=none;" vertex="1" parent="1">
          <mxGeometry x="465" y="395" width="100" height="30" as="geometry" />
        </mxCell>
        <mxCell id="ZMmlAPcgC032XeqDMMNX-44" style="edgeStyle=orthogonalEdgeStyle;rounded=0;orthogonalLoop=1;jettySize=auto;html=1;entryX=-0.005;entryY=0.463;entryDx=0;entryDy=0;entryPerimeter=0;curved=1;strokeColor=#B3B3B3;" edge="1" parent="1" source="ZMmlAPcgC032XeqDMMNX-43" target="ZMmlAPcgC032XeqDMMNX-42">
          <mxGeometry relative="1" as="geometry" />
        </mxCell>
        <mxCell id="ZMmlAPcgC032XeqDMMNX-54" style="edgeStyle=orthogonalEdgeStyle;rounded=0;orthogonalLoop=1;jettySize=auto;html=1;entryX=0.022;entryY=0.58;entryDx=0;entryDy=0;entryPerimeter=0;exitX=0.588;exitY=0.005;exitDx=0;exitDy=0;exitPerimeter=0;strokeColor=#B3B3B3;strokeWidth=2;curved=1;" edge="1" parent="1" source="ZMmlAPcgC032XeqDMMNX-48" target="ZMmlAPcgC032XeqDMMNX-19">
          <mxGeometry relative="1" as="geometry" />
        </mxCell>
        <mxCell id="ZMmlAPcgC032XeqDMMNX-48" value="GameSessionStore" style="text;html=1;align=center;verticalAlign=middle;resizable=0;points=[];autosize=1;fillColor=#ffe6cc;strokeColor=#d79b00;" vertex="1" parent="1">
          <mxGeometry x="30" y="420" width="130" height="30" as="geometry" />
        </mxCell>
        <mxCell id="ZMmlAPcgC032XeqDMMNX-55" style="edgeStyle=entityRelationEdgeStyle;rounded=0;orthogonalLoop=1;jettySize=auto;html=1;entryX=1.015;entryY=0.839;entryDx=0;entryDy=0;entryPerimeter=0;strokeColor=#B3B3B3;" edge="1" parent="1" source="ZMmlAPcgC032XeqDMMNX-37" target="ZMmlAPcgC032XeqDMMNX-48">
          <mxGeometry relative="1" as="geometry">
            <mxPoint x="210" y="480" as="targetPoint" />
          </mxGeometry>
        </mxCell>
        <mxCell id="ZMmlAPcgC032XeqDMMNX-56" style="edgeStyle=orthogonalEdgeStyle;rounded=0;orthogonalLoop=1;jettySize=auto;html=1;entryX=0.52;entryY=0.016;entryDx=0;entryDy=0;entryPerimeter=0;endArrow=none;endFill=0;strokeWidth=3;" edge="1" parent="1" source="ZMmlAPcgC032XeqDMMNX-4" target="ZMmlAPcgC032XeqDMMNX-19">
          <mxGeometry relative="1" as="geometry">
            <Array as="points">
              <mxPoint x="276" y="233" />
            </Array>
          </mxGeometry>
        </mxCell>
        <mxCell id="ZMmlAPcgC032XeqDMMNX-57" style="rounded=0;orthogonalLoop=1;jettySize=auto;html=1;entryX=0.543;entryY=0.016;entryDx=0;entryDy=0;entryPerimeter=0;edgeStyle=orthogonalEdgeStyle;endArrow=none;endFill=0;strokeWidth=3;" edge="1" parent="1" source="ZMmlAPcgC032XeqDMMNX-20" target="ZMmlAPcgC032XeqDMMNX-43">
          <mxGeometry relative="1" as="geometry">
            <Array as="points">
              <mxPoint x="519" y="380" />
            </Array>
          </mxGeometry>
        </mxCell>
        <mxCell id="ZMmlAPcgC032XeqDMMNX-59" style="edgeStyle=orthogonalEdgeStyle;rounded=0;orthogonalLoop=1;jettySize=auto;html=1;entryX=0.566;entryY=0.098;entryDx=0;entryDy=0;entryPerimeter=0;endArrow=none;endFill=0;strokeWidth=3;" edge="1" parent="1" source="ZMmlAPcgC032XeqDMMNX-41" target="ZMmlAPcgC032XeqDMMNX-37">
          <mxGeometry relative="1" as="geometry" />
        </mxCell>
        <mxCell id="ZMmlAPcgC032XeqDMMNX-60" style="rounded=0;orthogonalLoop=1;jettySize=auto;html=1;entryX=0.474;entryY=0.071;entryDx=0;entryDy=0;entryPerimeter=0;edgeStyle=orthogonalEdgeStyle;endArrow=none;endFill=0;strokeWidth=3;" edge="1" parent="1" source="ZMmlAPcgC032XeqDMMNX-37" target="ZMmlAPcgC032XeqDMMNX-36">
          <mxGeometry relative="1" as="geometry">
            <mxPoint x="555" y="495" as="targetPoint" />
            <Array as="points">
              <mxPoint x="508" y="502" />
            </Array>
          </mxGeometry>
        </mxCell>
        <mxCell id="ZMmlAPcgC032XeqDMMNX-61" style="edgeStyle=orthogonalEdgeStyle;rounded=0;orthogonalLoop=1;jettySize=auto;html=1;entryX=0.314;entryY=0.149;entryDx=0;entryDy=0;entryPerimeter=0;endArrow=none;endFill=0;strokeWidth=3;" edge="1" parent="1" source="ZMmlAPcgC032XeqDMMNX-19" target="ZMmlAPcgC032XeqDMMNX-35">
          <mxGeometry relative="1" as="geometry" />
        </mxCell>
        <mxCell id="ZMmlAPcgC032XeqDMMNX-62" style="edgeStyle=orthogonalEdgeStyle;rounded=0;orthogonalLoop=1;jettySize=auto;html=1;entryX=0.498;entryY=0.102;entryDx=0;entryDy=0;entryPerimeter=0;endArrow=none;endFill=0;strokeWidth=3;" edge="1" parent="1" source="ZMmlAPcgC032XeqDMMNX-35" target="ZMmlAPcgC032XeqDMMNX-20">
          <mxGeometry relative="1" as="geometry">
            <Array as="points">
              <mxPoint x="395" y="340" />
            </Array>
          </mxGeometry>
        </mxCell>
        <mxCell id="ZMmlAPcgC032XeqDMMNX-63" style="edgeStyle=entityRelationEdgeStyle;rounded=0;orthogonalLoop=1;jettySize=auto;html=1;strokeColor=#B3B3B3;entryX=1;entryY=0.333;entryDx=0;entryDy=0;entryPerimeter=0;" edge="1" parent="1" source="ZMmlAPcgC032XeqDMMNX-29" target="ZMmlAPcgC032XeqDMMNX-48">
          <mxGeometry relative="1" as="geometry">
            <mxPoint x="20" y="430" as="targetPoint" />
          </mxGeometry>
        </mxCell>
        <mxCell id="ZMmlAPcgC032XeqDMMNX-64" style="rounded=0;orthogonalLoop=1;jettySize=auto;html=1;entryX=0.364;entryY=0.016;entryDx=0;entryDy=0;entryPerimeter=0;endArrow=none;endFill=0;strokeWidth=3;" edge="1" parent="1" target="ZMmlAPcgC032XeqDMMNX-29">
          <mxGeometry relative="1" as="geometry">
            <mxPoint x="276.6258783987156" y="347.66" as="sourcePoint" />
            <mxPoint x="273.37999999999977" y="532.0000000000001" as="targetPoint" />
          </mxGeometry>
        </mxCell>
        <mxCell id="ZMmlAPcgC032XeqDMMNX-68" value="" style="endArrow=none;html=1;rounded=0;entryX=0.371;entryY=0.947;entryDx=0;entryDy=0;entryPerimeter=0;exitX=0.637;exitY=0.067;exitDx=0;exitDy=0;exitPerimeter=0;strokeWidth=3;" edge="1" parent="1" source="ZMmlAPcgC032XeqDMMNX-2" target="ZMmlAPcgC032XeqDMMNX-29">
          <mxGeometry width="50" height="50" relative="1" as="geometry">
            <mxPoint x="270" y="680" as="sourcePoint" />
            <mxPoint x="320" y="630" as="targetPoint" />
          </mxGeometry>
        </mxCell>
        <mxCell id="ZMmlAPcgC032XeqDMMNX-70" style="rounded=0;orthogonalLoop=1;jettySize=auto;html=1;entryX=0.54;entryY=0.04;entryDx=0;entryDy=0;entryPerimeter=0;edgeStyle=orthogonalEdgeStyle;endArrow=none;endFill=0;strokeWidth=3;exitX=0.97;exitY=0.333;exitDx=0;exitDy=0;exitPerimeter=0;" edge="1" parent="1" source="ZMmlAPcgC032XeqDMMNX-2" target="ZMmlAPcgC032XeqDMMNX-21">
          <mxGeometry relative="1" as="geometry">
            <mxPoint x="300" y="817" as="sourcePoint" />
            <mxPoint x="365" y="833.5" as="targetPoint" />
            <Array as="points">
              <mxPoint x="360" y="810" />
              <mxPoint x="360" y="841" />
            </Array>
          </mxGeometry>
        </mxCell>
        <mxCell id="ZMmlAPcgC032XeqDMMNX-72" style="edgeStyle=orthogonalEdgeStyle;rounded=0;orthogonalLoop=1;jettySize=auto;html=1;entryX=0.04;entryY=0.471;entryDx=0;entryDy=0;entryPerimeter=0;exitX=0.298;exitY=0.995;exitDx=0;exitDy=0;exitPerimeter=0;curved=1;strokeColor=#B3B3B3;strokeWidth=2;" edge="1" parent="1" source="ZMmlAPcgC032XeqDMMNX-48" target="ZMmlAPcgC032XeqDMMNX-25">
          <mxGeometry relative="1" as="geometry">
            <Array as="points">
              <mxPoint x="69" y="790" />
              <mxPoint x="70" y="1044" />
            </Array>
          </mxGeometry>
        </mxCell>
        <mxCell id="ZMmlAPcgC032XeqDMMNX-74" style="rounded=0;orthogonalLoop=1;jettySize=auto;html=1;strokeWidth=3;endArrow=none;endFill=0;entryX=0.506;entryY=0.089;entryDx=0;entryDy=0;entryPerimeter=0;" edge="1" parent="1" source="ZMmlAPcgC032XeqDMMNX-21" target="ZMmlAPcgC032XeqDMMNX-22">
          <mxGeometry relative="1" as="geometry">
            <mxPoint x="410" y="885" as="targetPoint" />
          </mxGeometry>
        </mxCell>
        <mxCell id="ZMmlAPcgC032XeqDMMNX-75" style="rounded=0;orthogonalLoop=1;jettySize=auto;html=1;entryX=0.326;entryY=0.082;entryDx=0;entryDy=0;entryPerimeter=0;strokeWidth=3;endArrow=none;endFill=0;" edge="1" parent="1" source="ZMmlAPcgC032XeqDMMNX-22" target="ZMmlAPcgC032XeqDMMNX-23">
          <mxGeometry relative="1" as="geometry" />
        </mxCell>
        <mxCell id="ZMmlAPcgC032XeqDMMNX-76" style="rounded=0;orthogonalLoop=1;jettySize=auto;html=1;entryX=0.528;entryY=-0.009;entryDx=0;entryDy=0;entryPerimeter=0;exitX=0.191;exitY=0.992;exitDx=0;exitDy=0;exitPerimeter=0;strokeWidth=3;endArrow=none;endFill=0;" edge="1" parent="1" target="ZMmlAPcgC032XeqDMMNX-3">
          <mxGeometry relative="1" as="geometry">
            <mxPoint x="356.74" y="957" as="sourcePoint" />
          </mxGeometry>
        </mxCell>
        <mxCell id="ZMmlAPcgC032XeqDMMNX-77" style="edgeStyle=elbowEdgeStyle;rounded=0;orthogonalLoop=1;jettySize=auto;html=1;entryX=0.5;entryY=0.11;entryDx=0;entryDy=0;entryPerimeter=0;strokeWidth=3;endArrow=none;endFill=0;elbow=vertical;" edge="1" parent="1" source="ZMmlAPcgC032XeqDMMNX-3" target="ZMmlAPcgC032XeqDMMNX-24">
          <mxGeometry relative="1" as="geometry">
            <Array as="points">
              <mxPoint x="390" y="995" />
            </Array>
          </mxGeometry>
        </mxCell>
        <mxCell id="ZMmlAPcgC032XeqDMMNX-78" style="edgeStyle=orthogonalEdgeStyle;rounded=0;orthogonalLoop=1;jettySize=auto;html=1;entryX=0.5;entryY=0.088;entryDx=0;entryDy=0;entryPerimeter=0;strokeWidth=3;endArrow=none;endFill=0;" edge="1" parent="1" source="ZMmlAPcgC032XeqDMMNX-24" target="ZMmlAPcgC032XeqDMMNX-25">
          <mxGeometry relative="1" as="geometry">
            <Array as="points">
              <mxPoint x="490" y="1028" />
            </Array>
          </mxGeometry>
        </mxCell>
        <mxCell id="ZMmlAPcgC032XeqDMMNX-79" style="edgeStyle=orthogonalEdgeStyle;rounded=0;orthogonalLoop=1;jettySize=auto;html=1;entryX=0.011;entryY=0.567;entryDx=0;entryDy=0;entryPerimeter=0;curved=1;strokeColor=#B3B3B3;strokeWidth=2;" edge="1" parent="1" source="ZMmlAPcgC032XeqDMMNX-48" target="ZMmlAPcgC032XeqDMMNX-22">
          <mxGeometry relative="1" as="geometry">
            <Array as="points">
              <mxPoint x="100" y="899" />
            </Array>
          </mxGeometry>
        </mxCell>
      </root>
    </mxGraphModel>
  </diagram>
</mxfile>
